<svg width="35" height="30" viewBox="0 0 35 30" fill="none" xmlns="http://www.w3.org/2000/svg">
<path d="M34.5983 28.7152C29.6864 28.7152 28.6573 20.5151 28.0708 16.415L23.019 27.1081C28.979 32.4856 36.5282 28.7152 34.5983 28.7152Z" fill="#11222F"/>
<mask id="mask0_0_1" style="mask-type:alpha" maskUnits="userSpaceOnUse" x="0" y="0" width="30" height="30">
<path fill-rule="evenodd" clip-rule="evenodd" d="M20.75 0H9.24996C5.99027 0 3.92373 0.0125097 1.97036 1.96582C0.012246 3.92382 0 6.00029 0 9.24996V20.75C0 24.0098 0.0126854 26.0766 1.96582 28.0297C3.92484 29.9889 6.00044 30 9.24996 30H20.75C24.0098 30 26.076 29.988 28.0297 28.0342C29.9874 26.0765 30 23.9996 30 20.75V9.24996C30 5.99027 29.9877 3.92364 28.0342 1.97036C26.0753 0.0113965 23.9996 0 20.75 0Z" fill="white"/>
</mask>
<g mask="url(#mask0_0_1)">
<path d="M30 0H0V30H30V0Z" fill="#11222F"/>
<path d="M30 4.74609H0V9.49219H30V4.74609Z" fill="#F7F7F7"/>
<path fill-rule="evenodd" clip-rule="evenodd" d="M8.55469 4.74609H14.8828L11.3672 9.49219H5.03906L8.55469 4.74609ZM19.6875 4.74609H26.0156L22.5 9.49219H16.1719L19.6875 4.74609ZM30.8203 4.74609H37.1484L33.6328 9.49219H27.3047L30.8203 4.74609Z" fill="#11222F"/>
<g filter="url(#filter0_d_0_1)">
<path d="M30 0H0V4.74609H30V0Z" fill="#F7F7F7"/>
</g>
<path fill-rule="evenodd" clip-rule="evenodd" d="M8.55469 4.74609H14.8828L11.3672 0H5.03906L8.55469 4.74609ZM19.6875 4.74609H26.0156L22.5 0H16.1719L19.6875 4.74609ZM30.8203 4.74609H37.1484L33.6328 0H27.3047L30.8203 4.74609Z" fill="#11222F"/>
<path fill-rule="evenodd" clip-rule="evenodd" d="M-0.897451 -0.0292969H2.70762C2.80105 -0.0292797 2.89303 -0.00618351 2.97539 0.0379396C3.05775 0.0820627 3.12793 0.145846 3.17971 0.223623L7.81488 6.74323C7.87701 6.83655 7.91016 6.94615 7.91015 7.05826V8.92424C7.91019 8.99878 7.89555 9.0726 7.86706 9.14149C7.83856 9.21038 7.79678 9.27298 7.7441 9.32572C7.69141 9.37845 7.62886 9.4203 7.56 9.44886C7.49114 9.47743 7.41734 9.49215 7.34279 9.49218H-0.897451C-0.971999 9.49215 -1.04581 9.47743 -1.11467 9.44887C-1.18353 9.42031 -1.24609 9.37846 -1.29878 9.32572C-1.35147 9.27299 -1.39325 9.21039 -1.42174 9.1415C-1.45024 9.07261 -1.46488 8.99878 -1.46484 8.92424V0.538652C-1.46488 0.464104 -1.45024 0.390278 -1.42174 0.321391C-1.39325 0.252503 -1.35147 0.189902 -1.29878 0.137163C-1.24609 0.0844232 -1.18353 0.0425783 -1.11467 0.0140171C-1.04581 -0.0145442 -0.971999 -0.0292623 -0.897451 -0.0292969Z" fill="#182E40"/>
<path fill-rule="evenodd" clip-rule="evenodd" d="M2.7832 6.41602C2.92806 6.41602 3.06967 6.45897 3.19012 6.53945C3.31056 6.61993 3.40444 6.73432 3.45987 6.86815C3.51531 7.00198 3.52981 7.14925 3.50155 7.29133C3.47329 7.4334 3.40354 7.56391 3.30111 7.66634C3.19867 7.76877 3.06817 7.83852 2.92609 7.86678C2.78402 7.89505 2.63675 7.88054 2.50292 7.82511C2.36909 7.76967 2.2547 7.67579 2.17422 7.55535C2.09374 7.4349 2.05078 7.2933 2.05078 7.14844C2.05078 6.95419 2.12795 6.76789 2.2653 6.63054C2.40266 6.49318 2.58895 6.41602 2.7832 6.41602V6.41602ZM2.7832 3.19336C2.92806 3.19336 3.06967 3.23632 3.19012 3.31679C3.31056 3.39727 3.40444 3.51166 3.45987 3.6455C3.51531 3.77933 3.52981 3.92659 3.50155 4.06867C3.47329 4.21075 3.40354 4.34125 3.30111 4.44368C3.19867 4.54611 3.06817 4.61587 2.92609 4.64413C2.78402 4.67239 2.63675 4.65789 2.50292 4.60245C2.36909 4.54702 2.2547 4.45314 2.17422 4.33269C2.09374 4.21225 2.05078 4.07064 2.05078 3.92578C2.05078 3.73153 2.12795 3.54524 2.2653 3.40788C2.40266 3.27052 2.58895 3.19336 2.7832 3.19336V3.19336Z" fill="white" fill-opacity="0.1"/>
<line x1="5.2998" y1="13.8999" x2="24.6998" y2="13.8999" stroke="white" stroke-linecap="round"/>
<line x1="5.2998" y1="22.2998" x2="22.8998" y2="22.2998" stroke="white" stroke-linecap="round"/>
<line x1="5.2998" y1="18.1001" x2="19.2998" y2="18.1001" stroke="white" stroke-linecap="round"/>
</g>
<defs>
<filter id="filter0_d_0_1" x="-5" y="-4" width="40" height="14.7461" filterUnits="userSpaceOnUse" color-interpolation-filters="sRGB">
<feFlood flood-opacity="0" result="BackgroundImageFix"/>
<feColorMatrix in="SourceAlpha" type="matrix" values="0 0 0 0 0 0 0 0 0 0 0 0 0 0 0 0 0 0 127 0" result="hardAlpha"/>
<feOffset dy="1"/>
<feGaussianBlur stdDeviation="2.5"/>
<feColorMatrix type="matrix" values="0 0 0 0 0 0 0 0 0 0 0 0 0 0 0 0 0 0 0.25 0"/>
<feBlend mode="normal" in2="BackgroundImageFix" result="effect1_dropShadow_0_1"/>
<feBlend mode="normal" in="SourceGraphic" in2="effect1_dropShadow_0_1" result="shape"/>
</filter>
</defs>
</svg>
